<svg xmlns="http://www.w3.org/2000/svg" xml:space="preserve" viewBox="0 0 5333.3 5333.3"><path fill="#ff2261" d="M4409.3 2642c0 962.2-780 1742.3-1742.4 1742.3-962.3 0-1742.4-780-1742.4-1742.4 0-962.3 780.1-1742.4 1742.4-1742.4 962.3 0 1742.4 780.1 1742.4 1742.4"/><path fill="#00a4ff" d="M4451 4071.4s-227.1 494.6-1355 128.4c0 0-387.9-1313.5 340.4-1511.6 0 0 202-27.8 379.6 312.1 171.6 328.5 84.1 222.7 265.4 591.1l19.8 40s22.5 54.6 63.2 126.7c19.8 35 43.9 74.2 71.8 113 54.2 75.7 122.8 150.8 202.3 193.8 4.1 2.3 8.2 4.5 12.5 6.5"/><path fill="#0072d4" d="M3826.4 4311.3c-82.9 0-177.3-7.2-284.6-24.4a609.8 609.8 0 0 0-88.5-18.1c21-42.3 30.5-91 24.8-141-3.3-29-7.2-60-11.6-93 13 17.8 26.5 35.2 40.7 52a689.4 689.4 0 0 0 49.9 52.9c17.6 16.5 36 32.5 56.3 45.2-18.8-15-35-32.7-50.4-50.8a723.1 723.1 0 0 1-42.8-57.2c-23.2-34.2-44-69.9-62.8-106.6a1053.2 1053.2 0 0 0-49.3-199c4.4-.2 8.7-.4 13-.4 68.5 0 134.5 38.2 181 73.4a533.4 533.4 0 0 0 240.8 103.4 1271.1 1271.1 0 0 0 33.3 51.5c-78-2-163.4-23.5-252.8-77.4a79.2 79.2 0 0 0-40.6-11.5 72 72 0 0 0-22.5 3.6c-27.2 9.2-51.6 35.3-20.6 106.8 31.6 72.8 207.1 203.4 446.4 203.4 129.4 0 277.4-38.2 431.5-144.4l1.3.7c-24.3 36.3-91.7 117.4-235.4 172.9-82.5 31.8-198.6 58-357.1 58m79.8-312.2c-8.7-15.5-17-31.1-24.8-47a498.7 498.7 0 0 0 140-9 512.8 512.8 0 0 0 182.8-77c4.3 6.4 8.8 12.7 13.4 19-63 45.8-174.2 109-311.4 114m-568.8-389.8c-8-16-16-31.5-23.9-46.8-44.3-86.4-86.3-168-103-268.4 11-37.7 94.8-304 323.7-460.8 29.6 12.2 133.8 69.6 244.2 303.4a3172.5 3172.5 0 0 0 259.8 447c-51.5-55.8-176.8-200.4-260.8-372.7-52.3-107.5-143-182.5-237.1-182.5-89 0-181 67.2-246.2 237.5a196.2 196.2 0 0 0 12.4 169.8 169 169 0 0 0 37.1 44.6c18 14.8 35.9 38 52.3 63.6a632.4 632.4 0 0 0 21.1 30.8 205 205 0 0 0-79.6 34.5"/><path fill="#0072d4" d="M4042 4175.8a371.8 371.8 0 0 1-56.4-45.3 692.2 692.2 0 0 1-50-52.8 997 997 0 0 1-59.4-78.5 492.3 492.3 0 0 0 30-.1 961.8 961.8 0 0 0 42.5 68.7 719.7 719.7 0 0 0 42.8 57.1c15.4 18.2 31.6 36 50.4 50.9m-265.5-500.2a476.7 476.7 0 0 1-68.6-21.5l-7.1-24.8c-7-22.8-13.6-45.7-21-68.3a4169.2 4169.2 0 0 0-46-135.8 5472.6 5472.6 0 0 0-102.9-268.6 3600.6 3600.6 0 0 1 193.2 388c9.6 22 18.5 44.6 27.7 67l13.2 33.9c4 10.3 8 20 11.5 30.1"/><path fill="#0050b6" d="M3888.7 3999.4c-4.1 0-8.3 0-12.5-.2a1135.7 1135.7 0 0 1-33.3-51.5 504 504 0 0 0 38.5 4.4c7.9 15.9 16.1 31.5 24.8 47-5.8.2-11.6.3-17.5.3M3613.4 4185a371.8 371.8 0 0 1-56.3-45.3 689.4 689.4 0 0 1-49.9-52.9 966.4 966.4 0 0 1-40.7-52c-2.6-19.3-5.4-39.3-8.4-59.8l-.7-4.7a992.1 992.1 0 0 0 62.8 106.6 723.1 723.1 0 0 0 42.8 57.2 366.6 366.6 0 0 0 50.4 50.8"/><path fill="#000072" d="M3114.9 4181.7c565.3 181.5 893 139.3 1068.6 71.6 143.7-55.5 211.1-136.6 235.4-172.9-201.4-115.8-329.7-417.7-338.7-439.6-104.9-210.4-131.5-283.1-155-347.3-22.7-62-42.3-115.4-129.7-282.6-159.6-305.6-338.5-301-355-300-138.1 38.1-244 121.7-314.8 248.5-224.4 402-38.4 1122.2-10.8 1222.3m711.2 176.8c-210 0-456.4-45.6-737.2-136.8a23 23 0 0 1-15-15.4c-.6-2-60.5-206.7-89-463.1-38.5-346.4-4.7-617.7 100.5-806.2 77.4-138.6 193.4-229.8 345-271l2.9-.7c8.9-1.2 220.1-25.9 403 324.3 88.8 169.8 108.9 224.6 132.1 288 23.1 63.1 49.4 134.7 153.4 343.4l.7 1.5c1.3 3.3 137.3 329 338.6 428.3a23 23 0 0 1 10.8 30.3c-2.5 5.3-63 133-267 213.3-108.7 42.8-235.2 64.1-378.8 64.1"/><path fill="#00a4ff" d="M3530.8 2807.8s130.2 26.3 268.5 319c138.2 292.9 301.9 504.5 301.9 504.5s-172.1-449.8-223-641c-50.7-191.3-240.7-436-347.4-182.5"/><path fill="#000072" d="M3562 2795.2c47.4 23 151.6 96.3 258.1 321.9a3089 3089 0 0 0 194.4 348.4c-54.4-147.9-127.8-353.8-158.5-469.4-33.1-124.7-128-268.3-205.6-273.7-33.4-2.4-63 22.2-88.5 72.8m539.3 859.1a23 23 0 0 1-18.3-9c-1.6-2-166.7-216.9-304.5-508.6-129.9-275.1-251.3-306-252.5-306.4a23.4 23.4 0 0 1-16.4-31.4c44.8-106.4 103.2-125.4 144-122.4 104 7.2 209.2 165.4 247 307.8 50 187.9 220.5 634.3 222.2 638.8a23 23 0 0 1-21.5 31.2"/><path fill="#00a4ff" d="M2163.6 4177.6c-765 310.6-816.3 29.8-819.5 2.2l-.1-1v-1.2c199.9-250.3 257.8-476.8 274-604.1 8.6-68.1 5.2-108 5.2-108l181.2-109.5 240-145s147.2 102.1 272.8 245.7c188.8 215.8 328.8 525-153.6 721"/><path fill="#0072d4" d="M1594.4 4300c-80.2 0-132.4-16.6-166.5-37.9-36.4-22.7-51.2-50.7-57-68.4a408 408 0 0 0 213.4 46.4c75.7-5 132.5-71.1 126.7-146.7-6.3-82.7.6-201.5 64.1-315.4a113.3 113.3 0 0 0-61.1-162.7l-13.3-4.8h2.4c59.4 0 117-13.8 163.7-51.6 7.1 33.4 15.4 68.4 25 105-21.8 23-74 84.7-106.6 175-35.7 98.6-53 249.9 54.8 424.4-102.3 26.4-182.6 36.7-245.6 36.7"/><path fill="#000072" d="M1368.2 4184.1c3.3 15.3 15.7 50.6 59.7 78 83.9 52.3 278 76.4 727-105.8 193.5-78.7 298.7-181.7 312.6-306.3 29.4-264.4-351-557.7-424.3-611.5L1647 3478.2c1.7 68.5-8.4 363.3-278.7 706m226 162c-80 0-144.3-15.3-192.5-46.1-76.3-48.7-80.7-118.4-80.8-121.4a23 23 0 0 1 5-15.5c296.8-371.5 274.6-692.6 274.4-695.8a23 23 0 0 1 11-21.6l421.1-254.6a23 23 0 0 1 25 .8c20.1 14 491.2 344.9 455.9 663-15.9 142.8-130.6 258.5-341 344-241.7 98-435 147.2-578 147.2"/><path fill="#fff" d="M4448.3 3325c-18.2 255-135.3 532.7-431.7 595.5-140.6 29.7-286.3-7.5-400.6-94.5-63.2-48-150.8-93.7-239.3-73 0 0-53.2-12.5-46.7-106.5 0 0 20.8-25.2 63.7-40.8 50.4-18.3 131.2-23.4 244.7 40.8 171.2 96.7 505.1 136.8 466.3-305-6.7-76.2-24.4-166.8-56-273.8-29.8-101 28.4-209 130.6-234.2 12-3 24.5-4.8 37.3-5 41-1 85.7 13 132.1 53 67.9 58.3 114 244 99.6 443.4"/><path fill="#ffa300" d="M4448.3 3325c-139.5 74.9-258.4 55.8-343.6 16.5-6.7-76.2-24.4-166.8-56-273.8-29.8-101 28.4-209 130.6-234.2 50.3-12.4 108.4-4.4 169.4 48 67.9 58.3 114 244 99.6 443.4"/><path fill="#b2b2d4" d="M3919.8 3907.5c-102 0-204-34.5-289.9-99.8-72-54.8-143.2-82.8-208.9-82.8-10 0-20 .6-29.8 2a1361.7 1361.7 0 0 0-33.2-75.4c9.3-7.7 25-18.2 47.3-25.7l5.2 10.4c12.6 26 38 43.5 66.7 47.3 32.6 4.3 78.6 19.5 130.9 63.5 48.1 40.5 162.4 93 289 93 112.4 0 234.6-41.3 329.1-169a509.6 509.6 0 0 0 87.8-198.9 1658 1658 0 0 0 18.4-103.9c29.3-6.1 60-16.2 91.7-31a910.9 910.9 0 0 1-24.7 148.8c-40.7 159-141 359.7-387.6 412a444 444 0 0 1-92 9.5"/><path fill="#b27222" d="M4332.4 3368.2c23.5-163 30.7-395.5-86.4-514.3 29.8 5.5 59.2 20.6 87.7 45 64 55 106.9 242.4 90.4 438.2a419.5 419.5 0 0 1-91.7 31.1"/><path fill="#000072" d="M3421 3724.9c65.7 0 137 28 209 82.8 111.8 85 251 117.9 381.8 90.2 246.6-52.2 346.9-252.8 387.6-412 61.6-240.9 14.5-518-65.7-587-47.9-41-98-55.6-148.9-43-41.9 10.3-77 37-98.8 75a167.5 167.5 0 0 0-15.2 130.2c92.8 314.5 78.7 522.6-41.9 618.5-108.7 86.4-280.1 55.7-401.8-13.1-166.5-94.2-253.5-30-274.5-10.3-1.6 51.3 17.8 68 26.2 72.7 13.8-2.7 27.9-4 42.2-4m498.8 228.7c-112 0-223.8-37.8-317.8-109.3-55.2-42-138.2-88-220-69l-5.2 1.2-5.3-1.2c-2.9-.6-72.2-18-64.5-130.5l.6-7.3 4.7-5.7c4.5-5.5 113-132.3 337.5-5.4 104.7 59.2 259 89.8 350.4 17.1 103-81.8 112.2-278.7 26.4-569.3a213.9 213.9 0 0 1 19.4-166.3 202 202 0 0 1 127.8-96.8c66.2-16.3 130.1 1.5 190 53 93.7 80.5 148 368.4 80.2 633.3-62 242.8-212.2 401-422.7 445.6a489.8 489.8 0 0 1-101.5 10.6"/><path fill="#fff" d="m1856 1350.2-417.7 783.6-14.4 27.1c-390.8-332.2-282.6-836.6-228.4-1013.8a78 78 0 0 1 90-53.7c15 2.9 30 6 44.9 9.5 259.7 61 474.6 210.2 517.6 241.4l8 5.9"/><path fill="#ffa300" d="M1848 1344.3a311 311 0 0 1-517.7-241.4c259.8 61 474.7 210.2 517.7 241.4"/><path fill="#b2b2d4" d="M1392 1910.9c-7.4-219.3 104.1-364.7 106.2-522.6a309 309 0 0 0 113.3 33.4 327 327 0 0 0 28.7 41.2c-160.7 129.2-225.5 294.4-248.1 448m-61.2-777c-6.3-4-12.6-7.8-19-11.6l18.6 4.3.4 7.4"/><path fill="#b27222" d="M1611.5 1421.7a309 309 0 0 1-113.3-33.4c.1-7.8 0-15.6-.5-23.5-5.8-101.4-82.7-177.5-166.8-230.8l-.4-7.4a1335.5 1335.5 0 0 1 246.5 87.6c-19.6 87.9 6.7 160.1 34.5 207.5"/><path fill="#000072" d="M1270.5 1115c-24 0-45.8 15.4-53 38.9-57.3 187.4-150.3 651.7 199.7 970.5l409-767.3c-60.4-42.6-285.7-191.9-545-241.1-3.6-.7-7.2-1-10.7-1m153.3 1069a23 23 0 0 1-14.9-5.5c-173-147-270.2-342.5-289-580.8-15.5-195 26.9-370.2 53.6-457.3a101.4 101.4 0 0 1 116.2-69.7c313.2 59.5 569.5 253 580.2 261.2a23 23 0 0 1 6.4 29.1l-432.1 810.8a23 23 0 0 1-20.4 12.2"/><path fill="#fff" d="M3158.8 2378.6s-64.9 203.1-316 234.1c0 0-225.7 302-646.1 313.2-420.4 11.3-527.6-163.6-527.6-163.6s-139 3.3-229.9-100.6c0 0 31.7-46.8 58.1-64.8 0 0-74-19-100.5-48.7 0 0 31.7-101.6 24.4-237-7-127.2-89.6-527.8 193.2-795.2 18.3-17.4 38.2-34 59.6-50.1 0 0-131.3-119.5-59.4-294a52.6 52.6 0 0 1 83-18.7c68.8 61.2 199.4 163.6 314.3 174.4 0 0-37.9-30.7-49-101.8a52.4 52.4 0 0 1 80.6-52c55.2 36.9 132.3 82.7 204 105.8 0 0 241-351.5 461-548.3A183 183 0 0 1 2986 771c113.5 183.8 242.4 547.7 82.5 1151.8 0 0 19.8 81.8 18.4 189 0 0 26 23.7 121.2 33.2 0 0-9.4 158.7-112 191.5 0 0 7 14.1 62.7 42"/><path fill="#ffa300" d="M3068.5 1923c159.9-604.2 31-968.1-82.5-1151.9a183 183 0 0 0-277.5-39.8c-194 173.7-404.6 467.8-451.4 534.5l813.8 668.3c-1.4-7.2-2.4-11.2-2.4-11.2"/><path fill="#ffa300" d="M3054.8 1860.6a547.9 547.9 0 0 1-842.4-593.9l35.1 13c596.7 32.7 764.3 425.8 807.3 580.9"/><path fill="#b2b2d4" d="M1946.7 2632.7c-6.3 0-12.7-3-16.6-9.4-12.2-22.8-14.2-65.2-14.5-78.1 0-2.1-1.8-3.7-3.9-3.7h-.1l-27.3 1c-2.3 0-4 2.3-3.6 4.6l4 19a3.9 3.9 0 0 1-5.5 4.3 87.2 87.2 0 0 1-42.6-49.8 3.8 3.8 0 0 1 4.1-5c6.3.8 17.1 2 29.3 2a120 120 0 0 0 43.7-7c28.4-11.5 43.3-78.7 45.8-90.7a4 4 0 0 1 2-2.7l63.4-31.2a4 4 0 0 1 1.7-.4c1 0 2 .4 2.7 1.2 9.6 10 55 54.2 115.3 63.4 5.9.9 11.8 1.3 17.8 1.3 49.5 0 100-28.6 119.2-40.7.7-.4 1.4-.6 2-.6 2.5 0 4.7 2.3 3.8 4.9-22.4 65.5-57.3 87.4-78.1 94.7a13.6 13.6 0 0 0-5.8 21.6c9 10.8 19.3 19.7 22.5 27 1.1 2.6-1 5.3-3.5 5.3a4 4 0 0 1-1.3-.2l-88-29.3a80 80 0 0 0-25.2-4h-1.1l-2.4.1c-29 0-54-6.7-67.8-11.3-1.3-.4-2.7-.6-4-.6-4.7 0-9.2 2.6-11.3 7a89.4 89.4 0 0 1-39.6 40c-1 .5-1.7 1.4-2 2.5l-14 50.4a19.5 19.5 0 0 1-19 14.4"/><path fill="#b2b2d4" d="M1981.4 2890c-224.8-37.3-292-138.6-292.7-139.7a23 23 0 0 0-19.7-11h-.7c-6.3 0-103.6-.7-181.8-64a624 624 0 0 0 66.2 10.4 41.4 41.4 0 0 0 41.3-38.7c.4-5.6 1-11.7 1.7-18.4a8.8 8.8 0 0 1 15.3-4.8c34.3 40.6 137.4 148.5 296.3 192.4a34 34 0 0 0 27.5-4.1 202 202 0 0 1 105.7-31.2c7.7 0 15.5.5 23.6 1.5a35.7 35.7 0 0 0 26.3-7c22.3-18 76.4-54.9 144.5-54.9 11.7 0 23.9 1.1 36.4 3.6a34.1 34.1 0 0 0 29.2-7c44.3-36.9 202.6-157.7 455.7-237 80-25 122.8-112.7 90.7-190.1-10.4-25-25-52-45.4-80a16 16 0 0 1 12.7-25.6h.2c18.5.2 44 3 73.1 13.3a21 21 0 0 0 27.4-25.5 356.7 356.7 0 0 0-61.6-119.7c-22.4-29-38.4-62-47.2-96.9 74.8-8.8 145-32.8 207.4-68.7l29.3 24 3 16.1.3 1.3c.2.8 19 80.6 17.7 183.3 0 6.7 2.7 13 7.6 17.4 4.8 4.4 31.6 25.3 111.1 36.3-6.5 41-27.8 128.4-93.5 149.4a23 23 0 0 0-13.6 32.2c4.2 8.3 17.2 22 54.3 42.5-5 11.2-13 26.8-24.8 44.4l-18.3 10.7c-51.1 5.5-429 56.4-802.9 385-23-14-49.6-21.7-76.5-21.7-23.1 0-46.4 5.7-67.5 17.7l-.2.1a139 139 0 0 0-39.7 34.5l-.3.4-1.5 2-.2.2-5.5 7.5s-19.4-5.4-43.1-5.4c-6.5 0-13.2.4-19.9 1.4h-.5a76.3 76.3 0 0 0-47.4 23.7"/><path fill="#b27222" d="m3042.8 1911-29.3-24c7-4.2 14.1-8.4 21-12.8 3 11.8 5.7 24.1 8.3 36.8"/><path fill="#b27222" d="M2806 1955.6c-7.4-29.3-9.8-60-6.8-90.6 13.3-133.2-4.7-355-227.3-501.3a726.2 726.2 0 0 1 141.2 66.4c12.3 7.1 24 15.2 36 23 11.5 8.4 23.2 16.4 34.3 25.4a707.1 707.1 0 0 1 176.6 202.3c.4 1 45.5 76.5 74.5 193.4a543.8 543.8 0 0 1-228.5 81.5"/><path fill="#b2b2d4" d="M1805 1582.3c-72 0-133.4-29.5-171-53.1a655.7 655.7 0 0 1 53.8-45 23 23 0 0 0 1.8-35.4c-4.9-4.4-118.3-111.3-53.7-268.2a35 35 0 0 1 3.3-6c38.1 255.3 225.1 296.2 325 299.5 22.8.7 31.9 29.5 14 43.8-59.8 47.9-119.4 64.4-173.2 64.4"/><path fill="#000072" d="M1669 2739.3a23 23 0 0 1 19.7 11c1 1.4 108.3 163.4 507.4 152.6 404.5-10.9 626-301 628.2-304 3.8-5 9.4-8.2 15.7-9 192.5-23.8 268-152.5 289.7-200.5-37.1-20.4-50.1-34.2-54.3-42.5a23 23 0 0 1 13.6-32.2c65.7-21 87-108.3 93.5-149.4-79.5-11-106.3-31.9-111.1-36.3a23.1 23.1 0 0 1-7.6-17.4 826.9 826.9 0 0 0-17.7-183.3 23 23 0 0 1 .1-11.3c153.8-581.2 41.5-937.4-79.8-1133.8a159.7 159.7 0 0 0-242.5-34.8c-215.3 192.8-455 540.8-457.4 544.3a23 23 0 0 1-26.1 8.8c-75.2-24.2-155.5-72.4-209.7-108.5a28.3 28.3 0 0 0-31.8-.3 28.8 28.8 0 0 0-13.3 29.5c9.5 60.4 39.7 86.5 41 87.6a23.2 23.2 0 0 1-16.9 40.7c-121.7-11.4-257.4-117.8-327.4-180.2a29.1 29.1 0 0 0-46.4 10.3c-64.6 156.9 48.8 263.8 53.7 268.2a23.1 23.1 0 0 1-1.8 35.5c-303 226.8-266.4 592-248.8 767.5 2.3 22.7 4.3 42.3 5.1 58.1a785.3 785.3 0 0 1-21.3 230.7c20.4 14.8 58 28.2 80.3 34a23 23 0 0 1 7.2 41.3c-13.3 9-29.9 28.8-41.3 43.8 81 79.6 194.6 79.6 199.4 79.6h.6m489 210.2c-343.5 0-470.1-126-500.8-164.4-38-1.8-153.7-14.9-235.4-108.3a23 23 0 0 1-1.7-28c2.2-3.3 15.7-23 32.7-42-25.1-9.5-56-24-73.2-43.3a23 23 0 0 1-4.8-22.2c.3-1 30.4-99.6 23.3-228.8-.8-14.8-2.7-34-5-56.1-18-180-55.1-550.6 247.1-793.5-35.8-43.6-106.6-155-47-299.8a74 74 0 0 1 52.5-44.4c23.9-5.5 49 1 67.2 17.2 55 49 152.6 126.8 246.5 157-8-16.8-15.3-37.9-19.3-63.5a74.7 74.7 0 0 1 34-75.5c25.5-16.3 57-16 82.2.8 47.8 31.9 116.7 73.5 182.2 97.5 48.2-68.5 260.6-364.3 454.7-538a205.7 205.7 0 0 1 312.4 44.8c74.9 121.3 124.3 265 147 427.2 30.6 219.7 10.3 467.7-60.4 737.1A881 881 0 0 1 3110 2099c13 6.3 42.8 17.4 100.5 23.2a23 23 0 0 1 20.7 24.3c-.4 6.3-9.4 139-92.5 194.8a406 406 0 0 0 30.4 16.7 23 23 0 0 1 11.6 27.6c-2.7 8.7-70.7 212.5-325.6 248.8-39.8 49.3-264.1 304-657.8 314.6-13.4.3-26.5.5-39.2.5"/><path fill="#000072" d="M1651.3 2777a217.5 217.5 0 0 1-26-69.7c-1.4-8-1.9-16.3-1.4-24.7 12.2 11.7 21.5 23.5 32 34.5 5.1 5.5 10.3 10.9 15.6 16l7.8 7.6 7.5 6.9-35.5 29.4M3088 2358.2a231 231 0 0 1-27.5-14.4 328.3 328.3 0 0 1-25.5-17.3 225.8 225.8 0 0 1-44.8-43.2c20 5.7 39 11 58.1 16l28.3 7.6a645 645 0 0 1 27.4 8l-16 43.3m-9.5-224.8c-13.7-6.3-26.1-13-38.7-20.5a473 473 0 0 1-36.6-23.5 343.5 343.5 0 0 1-34.2-27.2 187.7 187.7 0 0 1-28.9-32.8c12.8 7 25.5 12.9 38.4 18.3 12.8 5.5 25.8 10.5 38.7 15.5 13 5 26.1 9.5 39.2 14l38.9 13.3-16.8 42.9m-32.7-206.4c-26.4-146.5-85.3-245.1-85.9-246.1l39.5-23.8c2.6 4.3 63.8 107 91.8 261.7l-45.4 8.2m-546.3-600.8a158 158 0 0 1-14.8 17 340.8 340.8 0 0 1-53.8 45 342 342 0 0 1 20.2-67.1c3-7 6.1-13.9 10-20.3l38.4 25.4"/><path fill="#fff" d="M2471 2035.8c11.3 32 1 64.7-23 73.1-24 8.5-52.6-10.6-63.8-42.5-11.3-32-1-64.6 23-73 24-8.5 52.6 10.5 63.8 42.4"/><path fill="#000072" d="M1796.3 2117.3a628.4 628.4 0 0 0-46-33.9 358.4 358.4 0 0 0-47.5-26.7c-8-4-16.6-6.7-24.8-10.3-8.6-2.4-17-6.1-25.8-8-17.5-5.6-35.7-8-55.5-12.7a125 125 0 0 1 59.2-10c10.3 0 20.2 2.7 30.3 4.8 9.7 3.2 19.5 6.4 28.5 11.3a177.5 177.5 0 0 1 67.9 59 117 117 0 0 1 13.7 26.5m362.6-224c.3-29.7 9.2-58.3 22-85a233.3 233.3 0 0 1 54.2-71.2 199.6 199.6 0 0 1 79.4-43.7c29.2-8.1 60.2-8.6 88.4-.4-27.8 9.9-53 19.2-76 32a331.9 331.9 0 0 0-63.2 44.5c-19.3 17-37 36.4-54.1 57.1-17.2 20.9-33.5 43-50.7 66.7M2020.1 2439c-25.3 10.8-53.5 13.8-77.4.2l-1.1-.6c-35-20.3-86.1-89.4 36.6-125.1 115.5-33.7 148.1 80.2 42 125.5"/><path fill="#000072" d="M2022.8 2420.2a237 237 0 0 1-15.6 68.2 165 165 0 0 1-16.5 32.4 110.1 110.1 0 0 1-26.4 28.8 78.4 78.4 0 0 1-38.6 15.9 91.3 91.3 0 0 1-69.9-23.2c-4.2-4-8-8.4-11.8-12.7-3.3-4.8-6.6-9.5-9.2-14.9 6.1.9 11.4 2.5 16.7 4 5.3 1.3 10.5 2.6 15.4 4.2 10 2.4 19.2 5.4 28 6.6a45.2 45.2 0 0 0 42.9-12 87.5 87.5 0 0 0 14.6-20c4.2-7.8 7.7-16.5 10.9-25.4 3-9 5.7-18.4 8-27.9 1-4.8 2.2-9.5 3-14.4 1-4.7 2-9.9 2.6-13.9l46 4.3"/><path fill="#000072" d="M2017 2407c1.5 1.6 4 4.2 6.3 6.3l7 6.7a246 246 0 0 0 47.2 34.5 152.5 152.5 0 0 0 71.4 21.3 115 115 0 0 0 37.1-5c6.2-1.4 12-4.2 18.3-6.4 5.8-2.9 12-5.4 17.6-9 23.5-13 45.6-30.9 67.9-50a193.1 193.1 0 0 1-52.7 71.8c-5.7 5.1-12.3 9.2-18.7 13.7-6.8 4-13.7 8-21.1 11a147.8 147.8 0 0 1-46.9 11.9c-16.3 1.3-32.8 0-48.6-3.4a203 203 0 0 1-45.1-16.1 244.9 244.9 0 0 1-74.8-57.4l35-30M1893.3 2557c4.9 13.5 14 31.9 30.2 47a846 846 0 0 1 11.7-48.4 105 105 0 0 1-42 1.3zm38.9 83.2c-2.4 0-4.8-.7-7-2-53.8-33-63-94.3-63.3-96.9a13.1 13.1 0 0 1 16.6-14.5c54 15.4 69.4-7.5 70-8.5a13 13 0 0 1 17.7-4.9 13.3 13.3 0 0 1 5.4 17.7c-10 19.6-22.5 77.7-26.5 98.4a13.2 13.2 0 0 1-13 10.7"/><path fill="#000072" d="M2168.2 2507.4a152.2 152.2 0 0 0 58.3 42.1c4.5-11.3 10-33.4 3.3-65.6a138.1 138.1 0 0 1-61.6 23.5zm64.5 72c-1.6 0-3.1-.3-4.6-.8-73.7-27.1-94.8-76.5-95.6-78.6a13.1 13.1 0 0 1 13-18.2 110.8 110.8 0 0 0 82.1-30 13.1 13.1 0 0 1 22.1 5c24 73.6-5.1 115.3-6.4 117a13.1 13.1 0 0 1-10.6 5.6m34.6-1288c-6.2 8.7-12.8 17-19.4 25.3-6.7 8.3-13.7 16.4-20.7 24.5a847 847 0 0 1-44.6 47 820.7 820.7 0 0 1 20.3-61.6 705.7 705.7 0 0 1 24.8-58.8l39.6 23.6M1690.8 1450c1.2 1.4 3.5 3.7 5.5 5.5l6.3 5.8a306.4 306.4 0 0 0 42.3 30.7c20 11.7 42 20.2 64.8 25.1a213 213 0 0 0 35 3.9c11.8.4 23.6-1 35.5-2.6a422.7 422.7 0 0 0 72-19.8 176.5 176.5 0 0 1-66.6 41.2c-25.4 8.4-53 12-80.3 9.9a233.5 233.5 0 0 1-79.2-21.3 241.2 241.2 0 0 1-52.6-32.4 145 145 0 0 1-16.3-14.4l33.6-31.5m676.3 483.4c65.2-16 136 43.4 157.9 132.7 22 89.4-13.2 174.8-78.4 190.8-65.3 16-136-43.4-157.9-132.7-22-89.4 13.2-174.8 78.4-190.8"/><path fill="#fff" d="M2381 1975c25-6.2 51 11.7 57.8 39.9 7 28.2-7.7 56-32.7 62.1-25 6.2-50.9-11.7-57.8-39.9-6.9-28.2 7.7-56 32.7-62.1"/><path fill="#4d4d9d" d="M2461.6 2197.5a33.9 33.9 0 1 1 0-67.7 33.9 33.9 0 0 1 0 67.7"/><path fill="#000072" d="M1679.5 2131.1c60.4-14.8 125.7 40.2 146 122.8 20.3 82.7-12.1 161.7-72.5 176.5-60.3 14.8-125.7-40.2-146-122.8-20.3-82.6 12.2-161.6 72.5-176.5"/><path fill="#fff" d="M1692.4 2169.5c23.1-5.6 47 10.9 53.5 37 6.4 26-7.2 51.8-30.3 57.4-23.1 5.7-47-10.8-53.5-36.9-6.4-26 7.2-51.8 30.3-57.5"/><path fill="#4d4d9d" d="M1767 2375.4a31.4 31.4 0 1 1 0-62.7 31.4 31.4 0 0 1 0 62.7"/><path fill="#ffc2de" d="M2480.2 1313.5s177.7-274.8 306.2-427a64.1 64.1 0 0 1 105.6 11.3c61 114.3 184 430.2 120.2 837.4 0 0-118.6-330-532-421.7"/><path fill="#000072" d="M2990.5 1743c-2-5.4-5-12.3-7.8-18.5a514.4 514.4 0 0 0-29.9-56 707.1 707.1 0 0 0-169.4-190c-11-9-22.8-17-34.4-25.4-11.9-7.8-23.6-15.9-36-23-24.1-15-49.6-28-75.4-40a832 832 0 0 0-162.3-54.1 23 23 0 0 1-15-34.1l.6-1a3774 3774 0 0 1 198.9-298.4 2211 2211 0 0 1 73.4-95.1c6.2-7.9 12.7-15.6 19.2-23.3l9.7-11.6a125 125 0 0 1 13.3-13.8 89.1 89.1 0 0 1 79.3-19.4 90 90 0 0 1 51.6 33.7c2.2 2.6 3.9 5.6 5.7 8.6l2.5 4.4 1.7 3.4c9.3 18.5 17.6 37 25.4 55.8 15.7 37.5 28.1 76 37 115.5a559.9 559.9 0 0 1 14.6 120.2c-17.8-36.6-33-73-48.7-109.2-15.6-36-30.9-71.9-47.2-107a825.1 825.1 0 0 0-26-51.6l-1.7-3.2-1.3-2c-.9-1.2-1.6-2.6-2.6-3.6a37.1 37.1 0 0 0-22.3-13.1 37.3 37.3 0 0 0-32 8.9c-3 2.6-10.3 12-16.2 19.3-6.1 7.6-12.3 15.1-18.2 23l-18 23.2-17.7 23.6c-12 15.5-23.6 31.5-35.3 47.3l-69.3 96-137.1 193.5-14.4-35a879.7 879.7 0 0 1 171.6 57.2 772.8 772.8 0 0 1 80.2 42.5c13 7.6 25.5 16.2 38.2 24.5 12.3 8.9 24.7 17.5 36.5 27a752.9 752.9 0 0 1 180.6 202.5 700 700 0 0 1 32.3 60.6c3.3 7.2 6.2 13.8 9.3 22.1l-43.4 15.6"/><path fill="#b27222" d="M3067.7 1820.7a886 886 0 0 0-35-96.2 357.7 357.7 0 0 0-14.4-32.3c1.9-14.6 3.5-29 4.9-43.3a596.4 596.4 0 0 1 44.5 171.8"/><path fill="#000072" d="M3068.5 1923a692.1 692.1 0 0 0-59.8-186.5l25.2-9-1.1-3a886 886 0 0 1 34.9 96.2c6.4 61.7.8 102.2.8 102.2"/><path fill="#b287bd" d="m3018.3 1692.2-3.8-7.6a700 700 0 0 0-74.1-114.6 752.9 752.9 0 0 0-136-133.5c10.2-50.4 5.8-89.6-4.5-119.4-18.4-56.4-57.6-77.8-63-80.6l-.6-.3c8.2-49.7-6-79.6-27.3-97.5a119.6 119.6 0 0 0-54-31.7l51-70.5c11.7-15.8 23.3-31.8 35.3-47.3l17.7-23.6 18-23.3c6-7.8 12-15.3 18.2-23 6-7.1 13.2-16.6 16.3-19.2a36.8 36.8 0 0 1 31.9-9 37.7 37.7 0 0 1 22.3 13.2c1 1 1.7 2.4 2.6 3.7l1.3 2 1.7 3c9.3 16.8 17.9 34 26 51.7 16.3 35.1 31.6 71 47.2 107 15.6 36 30.8 72.5 48.6 109a2483.8 2483.8 0 0 0-130.8-218.5 25 25 0 0 0-41.8.3l-65.2 98.4a24.9 24.9 0 0 0 7.1 34.8c38.3 24.3 41.2 66.2 40.3 84.7a25.4 25.4 0 0 0 5.8 17.2c87 107.3 76 194.6 67.2 227.5-2.4 8.8.2 18.3 7 24.6a589.2 589.2 0 0 1 140.5 199.2c-1.4 14.3-3 28.7-4.9 43.3"/><path fill="#000072" d="M3008.7 1736.5c-82.4-171.8-210.4-274.4-210.4-274.4l.2-.9c2.4-8.5 4.4-16.7 6-24.7l7.2 5.7a752.9 752.9 0 0 1 180.6 202.5 700 700 0 0 1 32.3 60.6c2.9 6.3 5.5 12.2 8.2 19.2l1.1 3-25.2 9m-15.5-555.6-.1-.2c-17.8-36.5-33-73-48.6-109-15.6-36-30.9-71.9-47.2-107a825.1 825.1 0 0 0-26-51.6l-1.7-3.2-1.3-2c-.9-1.2-1.6-2.6-2.6-3.6a37.1 37.1 0 0 0-29.2-13.8 37 37 0 0 0-25 9.6c-3 2.6-10.4 12-16.3 19.3-6.1 7.6-12.3 15.1-18.2 23l-18 23.2-17.7 23.6c-12 15.5-23.6 31.5-35.3 47.3l-51 70.5a137 137 0 0 0-31-5.5s135.6-230.3 219.1-237.8h2.9c82.2 0 147.2 317.2 147.2 317.2"/><path fill="#fff" d="M2798.3 1462s-4-4-11.6-10.6c-34.2-29.7-142.4-112.9-306.5-138l136.2-201.2s12-.9 28.7 1.2c40.2 5.1 107 27.7 91.2 122.8 0 0 109.3 56 62 225.8"/><path fill="#b2b2d4" d="M2786.7 1451.4c-34.2-29.7-142.4-112.9-306.5-138l136.2-201.2s2.5-.2 6.8-.2c5.1 0 12.9.3 21.9 1.4l-48.6 94.6a31.9 31.9 0 0 0 13.9 43.3 58 58 0 0 1 34.2 41.7 35.2 35.2 0 0 0 23.8 26.6c36.1 12.1 103.3 46 118.3 131.8"/><path fill="#000072" d="M2519.1 1297a647.5 647.5 0 0 1 265 122.3c18.6-120-55-160.8-58.5-162.6a23.3 23.3 0 0 1-12-24.2c5.1-31.3.4-55.1-14-71-19.6-21.4-53.7-25.6-71-26.3zm279.2 188c-6 0-12-2.3-16.3-6.7-1-1.1-114.7-113-305.2-142a23 23 0 0 1-15.6-35.7l136-201.3a23 23 0 0 1 17.5-10.1c3-.2 76.7-5 119 41.3 21.7 23.8 30.8 55.6 27.2 94.7 31.4 24 100.5 96 59.6 243a23 23 0 0 1-22.2 16.9"/><path fill="#fff" d="M3586.2 4665.4c-165 105.8-300.4 11.2-502.1-42.4-201.8-53.5-159.4-219.2-159.4-219.2s121.2-149 490.8-116c11 1 21.6 2.2 32 3.5 141.2 18.3 216.6 69.3 244.4 130 38.3 83.2-13 184.6-105.7 244"/><path fill="#b2b2d4" d="M3429.2 4690.5c-63.8 0-129.3-22.1-207.2-48.5-41.6-14-84.6-28.6-132-41.2-139.9-37.2-148.8-132-145.7-172.6a1501 1501 0 0 0 330.4-24 249 249 0 0 0 151.4-92.2l12 1.3c-33 69.8-106 153.1-266.7 153.1-25.9 0-54-2.1-84.5-6.8l-4-.3c-14 0-26 11.4-25.6 26 .6 17.7 7 39 31 51 46.5 23.3 253.9 79.7 287.7 109.3 6.8 6 15 8.8 22.8 8.8 31.6 0 60-45.2-11.8-118.1 0 0 70.4 5.6 110.5 49a71.3 71.3 0 0 0 51.8 23.3c8.6 0 17.3-1.7 25.6-5.4 32.1-14 61.4-43.4 38.5-105 0 0 44-5.8 66.3-40 12 64.4-29.8 139-105.9 187.8-50.2 32.2-97 44.5-144.6 44.5"/><path fill="#000072" d="M2946 4414.8c-4.7 26.9-15 143.7 144 186 47.4 12.6 90.4 27.1 132 41.2 136 46 234.3 79.3 351.8 4 78.6-50.4 120.6-128.5 104.5-194.2-19-77.4-113-127.5-264.8-141-317.8-28.4-445.7 82.1-467.6 104m483.7 321.6c-72.6 0-144.4-24.4-222.3-50.7-41-13.9-83.2-28.2-129.2-40.4-221.2-58.8-176.3-245.3-175.8-247.2a23 23 0 0 1 4.5-8.8c5.3-6.5 133.3-158.1 510.7-124.5 233.4 20.8 291.6 119.2 305.5 176 20.9 84.9-29.1 183-124.3 244-58.7 37.6-114.1 51.6-169 51.6"/><path fill="#000072" d="m3457.8 4700.5.6-1.7.7-2.5c.4-1.7 1-3.4 1.3-5.2 1-3.6 1.5-7.3 2.2-11 .4-3.7 1-7.4 1.2-11.2 0-3.7.5-7.5.1-11.3-.3-15-3.6-30-9.9-44.5-3.7-6.9-7-14.2-12-20.7-4.4-7-10.2-13-15.7-19.7-5.6-6.5-12.4-12-18.6-18.5-6.8-5.7-13.8-11.5-20.7-18 9 2 18 4.4 27 7.4 4.4 1.8 8.7 3.7 13 5.7 4.3 2.1 8.9 3.8 12.7 6.7 4 2.6 8.2 5.2 12.2 8l3 2 2.8 2.5 5.5 5c7.7 6.3 13.7 14.5 20.1 22.5a137.3 137.3 0 0 1 24 89c-.4 5.2-1 10.5-2 15.7a86 86 0 0 1-3 12l-1.6 4.6-42.9-16.8m179.2-100-2.1-11.8-2.4-12.4c-1.7-8.2-3.4-16.5-5.5-24.6a302.5 302.5 0 0 0-15.5-47.4 184.9 184.9 0 0 0-41.4-60.5 268 268 0 0 0-21.2-17.6c9.7-1.4 19.8-.6 29.6 2 9.7 2.6 19 7 27.7 12.6 17 11.5 30.4 27.4 41.2 44.2a241.3 241.3 0 0 1 24.7 53.8 255 255 0 0 1 9.5 42.8c.6 5 1 9.5 1.3 15.3l-46 3.6"/><path fill="#fff" d="M1910.3 3469.2a318.4 318.4 0 0 1-29.5 43.3c-86 105.5-241.9 80-357.5 40.2a918.8 918.8 0 0 1-146.2-65.3c-8.8-1.1-17.2-3.1-25.4-6.1h-.1c-128.6-46.1-181.4-305.9-84.6-398.2 105.7-100.8 149.5 3.6 149.5 3.6 162.3-31 148.9 107.3 148.9 107.3a662.5 662.5 0 0 1 97.9 33.8h.1c.2-20.3 2-40.6 4.9-60.3a688.5 688.5 0 0 1 48.6-166c225.7-22.7 300.8 278.7 193.4 467.7"/><path fill="#ffa300" d="M1910.3 3469.2a318.4 318.4 0 0 1-29.5 43.3c-86 105.5-241.9 80-357.5 40.2a256.6 256.6 0 0 1 387-83.5"/><path fill="#b2b2d4" d="M1535.1 3532.2a897.5 897.5 0 0 1-63.8-24.5 720 720 0 0 0 76 7.2 257 257 0 0 0-12.2 17.3m308.2-101.1a255.3 255.3 0 0 0-56.2-14.5 148.3 148.3 0 0 0 9.2-69c-8-77-5.3-140-1.9-178.8a99 99 0 0 0-23.8-73.7 593.6 593.6 0 0 1-43-55 688.5 688.5 0 0 0 103.8 61c-8.4 70.2-11 178.2 11.9 330"/><path fill="#b27222" d="M1703.1 3564.1c-56.4 0-116-14.3-168-32 3.8-5.8 7.9-11.6 12.1-17.2a734.3 734.3 0 0 0 119.8-4.6c56-6.7 101-44.3 120.1-93.7 19.5 2.7 38.3 7.6 56.2 14.5 3.6 23.8 7.8 48.8 12.7 74.8-39.5 42.9-94.5 58.2-152.9 58.2"/><path fill="#b2b2d4" d="M1751.3 3301.6a170.8 170.8 0 0 0-66.8-64.4c1.3-2.9 2-6 2-9.2 0-14.4 1-28.9 2.8-43.2 49.4 48.2 62 116.8 62 116.8M1437.4 3424c-32 0-59.5-10-59.5-10 163-3.8 88.8-112.4 88.8-112.4h5.6c67.8 0 86.3-52.6 91.3-84.3 20.3 5.5 38 11.3 52.3 16.3-6.5 62.5-44 88.5-66.4 98.5a35.6 35.6 0 0 0-19.9 23.9c-13.9 55.2-55.9 68-92.2 68"/><path fill="#000072" d="M1351.2 3062.2c-19 0-42.4 12.8-68.3 37.5-45 43-55.8 140.6-25.6 232.2 25.2 76.6 71 126.2 122.6 132.6 3 .4 6 1.4 8.7 3 3.4 2 340.5 194.7 474.3 30.4 80.3-98.5 96.3-262.9 36.4-374.2-36.4-67.6-95.2-102.7-166.8-100.2-13 31.7-45.5 119.5-46 204.5a23 23 0 0 1-33 20.7c-.3-.2-37.8-17.7-94-32.4a23 23 0 0 1-17-24.6c0-.3 3.4-43.7-23.7-68.2-20-18-52.9-22.7-98-14.1a23 23 0 0 1-25.5-13.7c0-.2-12.4-27.9-36.4-32.7a38 38 0 0 0-7.7-.8m352 548.3c-147.3 0-305.4-85-333.7-101-67.6-10.8-125.7-71.4-156-163.2-29.5-89.4-30.3-215.1 37.6-280 41.7-39.7 81.2-56 117.5-48.4 30.4 6.4 49.8 28 60 43.5 52.4-7 93.2 2.4 121.5 28.3 29.4 26.8 36.7 64 38.2 86.7a709.5 709.5 0 0 1 53.7 17.7c8.9-103.5 52-197.9 54-202.2a23 23 0 0 1 18.6-13.3c97.2-9.8 177.2 34 225.3 123.3 69.2 128.6 51.5 311.3-41.2 425.1-50.7 62.1-121.8 83.5-195.6 83.5"/><path fill="#000072" d="M1674 3207.3a349 349 0 0 1 45 43.3 282 282 0 0 1 18.4 24.3c5.5 8.6 10.2 17.5 13.9 26.6a173 173 0 0 0-46.7-33 313.5 313.5 0 0 0-51.7-20.2l21-41m-238-124.7a97.7 97.7 0 0 1 2.7 18.7c.3 6.2 0 12.8-1.5 20a52.8 52.8 0 0 1-6.7 16.7l-.8 1.4-.4.7.7-1a16.6 16.6 0 0 0 1-15.8c-1.7-3.6-5-7-8.8-8.5-5.8-2-1.7-.6-.8-.6l4.3.8a122 122 0 0 1 33.8 11.9 94 94 0 0 1 29.8 25 86.3 86.3 0 0 1 16.5 36.4 113 113 0 0 1 2 18.9c0 5.6-.2 11.2-.6 17-1 11.4-3 23.3-7.5 35a91.3 91.3 0 0 1-29.2 40l-.5.3.7-.5 1-1a15 15 0 0 0 4-9 15.2 15.2 0 0 0-6.5-13.6l-.6-.5c-.2 0 .2.2.3.2l1.9 1.3a88.4 88.4 0 0 1 29.8 31.7 70.2 70.2 0 0 1 8 40.5 95.4 95.4 0 0 1-11.4 35.5 79 79 0 0 1-56.8 41.6 91 91 0 0 1-62.5-11.7 163 163 0 0 0 54-15 64 64 0 0 0 30.3-32.6c3-7 5-14.5 5-20.6a29 29 0 0 0-4.6-16.2 47.2 47.2 0 0 0-16.4-14.9l-1.1-.7-2-1.2-2.7-2.2a30.8 30.8 0 0 1 .5-47l1.6-1.2c1-.9 2-1.8 3-3 8-8.4 12.6-22.8 13.8-39 .3-4 .4-8.1.3-12.3-.1-3.7-.5-7.1-1.1-10.4a44 44 0 0 0-7.2-17 65 65 0 0 0-35.8-21.7l-2.9-.7-1.4-.3c.6 0-3.8-.7-6.5-2a27.3 27.3 0 0 1-15.8-31.6c.7-3 2-5.7 3.4-8.2l1.3-1.9.1-.1.6-.8c.5-.5 1-1.5 1.3-2.7a39.9 39.9 0 0 0 1.9-14.8l-.2-5 38.7-8.3"/><path fill="#000072" d="m1472.6 3328.7-2.6-46c26.3-1.5 45.7-9.6 57.6-24.2 20-24.4 15-60.8 15-61.1l45.6-7c.3 2.3 8.2 56.4-24.6 97-20.4 25.1-51 39-91 41.3"/><path fill="#fff" d="M3909.3 2558.9c-2 34-9.4 63.3-19.8 82.4-52.8 98.4-129.7 13.8-129.7 13.8-23.1 45-77.6 32.4-77.6 32.4 2.2 16.2 1.5 29.3-1.2 40-8.8 34.7-39.5 42.7-61.7 43.8l-5.9.5a127 127 0 0 0-53 17.4 712.6 712.6 0 0 0-42.1 27c-253.7 175.3-331.3 476.5-331.3 476.5 5.9 37.6 15 72.3 26.5 105.5 59.9 173.8 182.1 305.5 221.8 580.1a5417 5417 0 0 1 19.9 152.1 228.6 228.6 0 0 1-184.7 251c-505.2 92.9-866.4-108.2-866.4-108.2 21.2 136.8-103 218.6-203.2 242.6-100.1 24-396.4 189-474 12.7-18.4-42-19.3-77.6-9.8-107.6 13-41.7 46-72.5 79-94 43.4-28 86.9-40.3 86.9-40.3-179.9-254.4-81.8-462.8-13.6-558.7 26.2-36.8 48-57 48-57l-.1-.3c-66.1-249.5-73.8-421.3-66.5-527.2 6.3-93 24.1-135.4 24.1-135.4l772.5-281 510-297c.7-.5 1.3-.9 2-1.2l255.7-149a360.5 360.5 0 0 1 279.8-37.3c174.8 49.9 221.1 208.2 214.4 316.4"/><path fill="#ffa300" d="M3295.7 4375.3a543.8 543.8 0 0 1-82.2-977.1c59.9 173.8 182.1 305.5 221.8 580.1a5417 5417 0 0 1 19.9 152.1 228.6 228.6 0 0 1-159.5 245"/><path fill="#b2b2d4" d="M3420.7 2783.8c-117.6-65.5-59.6-183.2-59.6-183.2a167.9 167.9 0 0 0-18.6-123.8 135 135 0 0 1 40.2-6.7c51 0 76.3 37 88.4 66a64.2 64.2 0 0 0 58.8 40c10.6 0 21.3-2.8 31.2-8.7 14.2-8.6 23-18.1 23-18.1 9.2-36.7-5-63.5-5-63.5 76.6 23.8-.6 123.3 99.6 152.4 4.2 1.2 8.2 1.7 12.2 1.7 50 0 79-90.6 79-90.6 2.8 21.1 0 44.4 0 44.4 27.7 19 50.3 26 68.6 26a63 63 0 0 0 40.1-14c-2.7 10-5.9 18.3-9.3 24.7-11.6 21.6-24.7 33.5-38.7 35.2-1.4.2-2.7.3-4.1.3-20.7 0-42.6-18.7-49.7-26.3a23 23 0 0 0-37.5 5c-9.4 18.2-27.4 21.7-39.6 21.7-6.3 0-11.1-1-12.4-1.2a23 23 0 0 0-28 25.6c2.3 16 1.3 28.5-2.8 37.6-42.5-.8-69-13.7-85-26.8a64.6 64.6 0 0 0-55.7-12.8c-11.5 2.8-23.3 4-34.7 4-39.4 0-74-13.3-74-13.3 9 44.5 49.8 70.2 88.5 84.7a305.4 305.4 0 0 0-74.9 19.7"/><path fill="#b2b2d4" d="M3005 4382.7c-351 0-586.9-128-589.7-129.7a23.1 23.1 0 0 0-31.7 9.7c-35.5-18.5-108.2-57.4-146.4-84.9 0 0 336 138.4 616 138.4 97.1 0 187.4-16.7 254.6-61.5a544 544 0 0 0 151.8 105.3 1445 1445 0 0 1-254.7 22.7m92.6-892.9c-29.4-153-33.5-322.8 40-508.7a7.4 7.4 0 0 1 7-4.8c3.2 0 6.5 2 7.3 6 2.2 10.2 5 22.7 8.2 35.6 1.2 5.3 5.7 8.1 10.3 8.1 3.5 0 7.1-1.8 9.1-5.5 29.7-54.4 111.6-184.5 241.3-236.7 18 10 40.1 18.8 67.2 25.8-243.7 178.7-319.8 464.4-323.2 477.4-.8 3-1 6.2-.4 9.3a637 637 0 0 0 29.1 114.3 546.6 546.6 0 0 0-96 79.2m439.9-713.4a315.5 315.5 0 0 1-41.7-12.3 298.3 298.3 0 0 1 65.6-1.2c-4.2 2-8.4 4.1-12.4 6.5l-11.5 7"/><path fill="#b27222" d="M3259.6 4360a544.9 544.9 0 0 1-151.8-105.3c8.5-5.6 16.5-11.7 24.2-18.2 203.2-173 27.6-422.8-34.5-746.7 28.8-29.9 61-56.5 96-79.2 21.3 60.5 49.6 115.7 79 173 56.5 109.7 114.8 223.2 140 398 8 55 14.6 105.9 19.8 151.4a205.8 205.8 0 0 1-166 225.8l-6.7 1.2"/><path fill="#7c7cb6" d="M3487.9 2809.6a286 286 0 0 1-67.2-25.8 305.4 305.4 0 0 1 74.9-19.7c14.8 5.6 29.3 9.5 41.7 12.3a726.9 726.9 0 0 0-49.4 33.2"/><path fill="#b2b2d4" d="M2255.7 3609c-15.3-41.7-29.4-109.8 7.3-169.5 14.1-23 30-55 42.5-91.5a333.2 333.2 0 0 0 92.8 50.3 259.6 259.6 0 0 0 89.6 16.2c80.1 0 161-38.1 238.2-112.8a700 700 0 0 0 51.3-55.8c-98.5 183.4-210 230.2-298 230.2a283.5 283.5 0 0 1-136.8-37.4 21 21 0 0 0-29.6 10.5 266 266 0 0 1-33.1 60.8c-15.2 19.9-21.6 63.8-24.2 99m-192.5-32.4c-153.7-113.7-142.7-284.5-129.4-357.4a43 43 0 0 0-25.4-47.4 595 595 0 0 1-35-16.5 899 899 0 0 1 2.6-34.2 394 394 0 0 0 121.5 28c-35 57.7-57.1 139.1-28.4 248.3 21 79.8 55.9 137.5 94 179.2M2765 3109c-50.4 0-124.6-8.2-196.3-46.2l-1.2-.7c-50.3-26.6-94.3-50-135-63.9 101-85.2 286-237.7 476.4-376-112.6 99.7-226 211-300 285.6a78.4 78.4 0 0 0 12.6 121.3c4.4 2.8 8.9 5.8 13.3 9 33.8 24.8 100.5 52.7 146.8 70.5-5.2.2-10.7.4-16.6.4m-809.3 1254a364 364 0 0 1-133.7-24.9 327 327 0 0 1 67.2-29.3 23 23 0 0 0 12.6-9c23 13.5 68 32.3 138.8 32.3 27 0 57.7-2.7 92.5-9.5 0 0-75 40.4-177.4 40.4m23.1-504a345.9 345.9 0 0 1-97.6-107.5 456.9 456.9 0 0 1 43-54.8c11.3 41 34.2 120.4 54.6 162.3"/><path fill="#b2b2d4" d="M1864.9 4585.7c-53.6 0-95.6-18-116.9-66.5-13.7-31-17.3-59.2-10.7-85.2 4.8 7 7.7 17.1 8 31 .6 45 29.8 64.4 59.8 72.5 6 1.6 11.9 2.4 17.8 2.4a71.5 71.5 0 0 0 61.4-36.2c26.8-46.2 72.2-55.2 72.2-55.2s-28.2 49.6 22.3 49.6c5.6 0 12.3-.7 20-2 77.3-13.8 95.2-27.6 214.8-79.4 119.5-51.9 79.7-130.1 79.7-130.1a327.2 327.2 0 0 1-56.1-108.8c40 30 111.2 67.3 146.2 85.1a23 23 0 0 0-2.1 13.8c20.3 131.4-112.6 199.2-185.7 216.7-22 5.3-51.7 16.5-86 29.4-87.8 33.1-175.9 63-244.7 63"/><path fill="#000072" d="M1893.2 3025.9c-13.1 43-59.2 240.6 46.4 639a23 23 0 0 1-6.5 22.8c-.7.6-68.2 64.6-105.2 168.6-49.2 137.8-24.3 278.1 73.9 417a23 23 0 0 1-12.6 35.5c-1 .3-110.3 32-144.8 105.1-14.8 31.6-13.7 66 3.6 105.3 48.8 110.8 205.4 62.5 361.7 3.6a806 806 0 0 1 85.9-29.4c73-17.5 206-85.3 185.7-216.7a23 23 0 0 1 34-23.7c3.5 2 360.5 195.9 851 105.8a205.8 205.8 0 0 0 166-225.8c-5.2-45.5-11.9-96.5-19.8-151.4-25.2-174.8-83.5-288.3-140-398-46.8-91.2-91-177.3-108.2-287.3a23 23 0 0 1 .4-9.3c3.6-14 92-345.5 384.1-517.6a152.8 152.8 0 0 1 69.4-21c11-.6 25.8-3.4 34.1-13.4 7.5-9 9.9-24 7-44.3a23 23 0 0 1 28-25.6c3.7.8 37.8 7.2 52-20.6a23 23 0 0 1 37.5-5c7.5 8.2 32 29 53.8 26.1 14-1.7 27-13.6 38.7-35.2 18.9-35.2 29.8-127.8-6.8-214.6-22.3-52.6-70.5-121.6-174-151.2a338.6 338.6 0 0 0-261.7 35L2659 2747c-1.2.7-2.4 1.3-3.7 1.8L1893.2 3026m-28.5 1605.7c-68.2 0-128-23.4-158.9-93.8-22.6-51.5-23.7-99.9-3-143.7 31-65.6 103.4-102.8 144.4-119.3-115.8-179.4-98.4-335.1-62-436a520.3 520.3 0 0 1 106.5-174.9c-119.9-461.3-41.4-656.7-38-664.8a23 23 0 0 1 13.4-12.8l770.5-280.2 766-446.3a384.9 384.9 0 0 1 297.6-39.5c121 34.6 177.6 115.7 203.7 177.6 40.5 95.8 32.8 202.6 5 254.3-19.2 35.6-44 55.5-73.8 59.2-29.7 3.6-55.9-10.2-73-22.8a91.3 91.3 0 0 1-56.7 23.4c-1 21-7.2 38.6-18.6 52.4-15 18.1-38.3 28.5-67.3 30-16.6.8-33.3 5.9-48.3 14.7-257.7 151.8-350.2 445.3-361.6 485 16.6 100.4 58.6 182 103 268.4 55.4 107.9 118.2 230.1 144.5 412.5 8 55.4 14.7 106.8 20 152.8a252 252 0 0 1-203.4 276.3 1511 1511 0 0 1-274 25.1c-283.3 0-490.8-80.6-571.4-117.8-4.7 120-113.6 200.6-223 226.8a807.6 807.6 0 0 0-80.4 27.7c-73.3 27.6-174.2 65.7-261.2 65.7"/><path fill="#000072" d="M1940 3666a2716.1 2716.1 0 0 0 17.9 95.7c3.2 16.2 6.9 32.2 10.4 48.4 3.5 16.2 7.3 32.4 10.6 49a492.2 492.2 0 0 1-49.2-88.1 686.3 686.3 0 0 1-34.9-95.5l45.1-9.4M2394 4294c-14.4-8-28.2-16.4-42-25.3a932.5 932.5 0 0 1-40.6-27c-13.3-9.5-26.6-19-39.2-29.6a254 254 0 0 1-35.3-34.5c15 6.9 29.8 13 44.6 19.3 14.8 6.3 29.4 12.7 44.2 18.8l88.4 36.7-20 41.5m-494.4-23.2 1.6 1.8 2.3 2.2c1.6 1.6 3.4 3.1 5.2 4.7 3.6 3 7.5 6 11.5 8.7 4 2.8 8 5.6 12.4 8a239.4 239.4 0 0 0 71.5 26.7l15.6 2.8c5.2 1 10.5 1 15.8 1.6 10.6 1.4 21.3 1 32.2 1.3 10.8.1 21.6-1.3 32.6-1.7 10.9-1.2 21.8-2.8 32.8-4.3l-31.2 11.9-16.2 4.5c-5.4 1.5-10.8 3.3-16.3 4.2-11.1 2.1-22.3 4.5-33.7 5.2-5.7.5-11.4 1.4-17.1 1.4l-17.4.3c-23.1-.8-46.6-4.2-69.5-11.5-5.7-1.9-11.4-3.8-17-6.3a178.6 178.6 0 0 1-32.5-17.2c-2.6-1.8-5.2-3.5-7.8-5.6l-3.9-3c-1.4-1.3-2.5-2.1-4.4-4l33.5-31.7m-8 340.1a162.5 162.5 0 0 1-4.9-24c-1-7.8-1.6-15.7-1.8-23.7a185 185 0 0 1 5-48.3c1.8-8 4.7-16 8.1-23.8a84.3 84.3 0 0 1 13.5-22 63.1 63.1 0 0 1 20.4-15.9 49.7 49.7 0 0 1 24.5-4.6 108.9 108.9 0 0 0-20.7 35.6 134 134 0 0 0-5 17.8 194 194 0 0 0-.1 58.4c.7 6.6 1.7 13.3 2.6 20l3.1 19.2-44.7 11.3m-185.6-77.3a199.8 199.8 0 0 1 5-39.9c3.1-12.8 7.5-25.6 13.6-37.9a106.4 106.4 0 0 1 24.9-33.6 46.3 46.3 0 0 1 39.4-11.4 80.5 80.5 0 0 0-21.2 27c-2.3 4.6-4.5 9.3-6.2 14.4-1.7 5-2.8 10.2-4 15.5a251.3 251.3 0 0 0-4.2 32.8c-.4 5.5-.6 11.1-.9 16.7l-.3 16-46 .4m2031.4-1884.8 4.4-11 4.6-12c2.9-8 6-16.2 8.6-24.6 2.7-8.3 5.3-16.7 7.9-25.4 2.6-8.6 4.8-17.4 7.4-26.4a222.5 222.5 0 0 1 12.5 54.7 277.9 277.9 0 0 1 .8 42.6c-.5 4.9-.8 9.3-1.9 14.9l-44.3-12.8m-52.1 61.6a112.6 112.6 0 0 1-23 .6c-7.3-.3-14.6-1.3-21.8-2.7a126 126 0 0 1-41.8-16.5c-6.7-3.9-12.6-9-18.4-14.1a117.7 117.7 0 0 1-14.9-17.6c-4.7-6.1-7.8-12.9-11.3-19.5-3.2-6.8-5.2-13.7-7.8-20.6a19 19 0 0 1 .8-15.2l1.7-3.4a168 168 0 0 0 6.5-11.2 191.6 191.6 0 0 0 23.7-104.3c7 9 13.4 19.4 17.1 30.8 2.3 5.6 3.5 11.4 5 17.4.8 6 2.1 12 2.2 18.2a142.6 142.6 0 0 1-7.2 55c-1 3-2 6-3.4 9a81.4 81.4 0 0 1-4.7 9.4l2.5-18.6c2 4.6 3.2 9.7 5.4 14 2.3 4.3 4.2 9 7.2 12.5 5.2 8 12 14.2 20 19a80 80 0 0 0 26.6 10.5 105.5 105.5 0 0 0 29 1.7l6.6 45.6"/><path fill="#000072" d="m3584 2630.6-3 2.7a69 69 0 0 1-7.4 6.1 141.4 141.4 0 0 1-81.8 27.8 96.4 96.4 0 0 1-53-17.1 98.2 98.2 0 0 1-41-69.2c-.6-5-.7-7.4-1-10.7l-.8-9.3a160.3 160.3 0 0 0-7.6-34.8 188 188 0 0 0-6.5-15c-2.5-4.3-5-9-8.3-12.8a74 74 0 0 0-31-21.5 48.8 48.8 0 0 1 47.8-4 67.8 67.8 0 0 1 21.7 15.3 92.2 92.2 0 0 1 14.4 20.6 179.4 179.4 0 0 1 15.6 44.2c.7 3.7 1.6 7.4 2.2 11 .6 3.6 1.2 8.2 1.7 9.8a51.6 51.6 0 0 0 22.5 33.1 48.6 48.6 0 0 0 24.4 8 102.2 102.2 0 0 0 31.2-5 131 131 0 0 0 23-10l3.5-2 1.6-1c.4-.2 1.1-.7 1-.5l30.8 34.3"/><path fill="#000072" d="M3573.3 2805.1c-5.6-.2-136.4-7.5-179.3-84.2-21.4-38.2-17.3-84.8 12-138.3l40.4 22.2c-21.2 38.6-25.3 70-12.2 93.5 25.2 45.2 110.6 59.2 141.4 60.8l-2.3 46m-407.1 497.5c-1.7-4-1.6-4.2-2.1-6l-1-3.7c-.7-2.4-1.2-4.7-1.6-7l-2.2-13.1c-1.4-8.6-2.3-17.2-3.2-25.7-1.6-17-2.5-33.9-3-50.8-1-33.8-1.4-67.5 4.3-101.7a439.9 439.9 0 0 1 15.7 48.6c4.5 16.3 8.1 32.6 12.1 48.8l11.5 48.4 5.8 23.7c1 3.8 2 7.7 3.1 11.3l1.6 5.3.7 2.2c0 .3.8 2 0 0l-41.7 19.7"/><path fill="#00a4ff" d="m2252.2 3657.3 1.6 3s-198.9-27.6-262.4-268.7c-27-102.7-6.5-178.5 26-231.8a284.8 284.8 0 0 1 109.5-102.7c247.6 27.5 182 263.8 116.5 370.3-59.8 97.1-2 210.5 8.8 230"/><path fill="#0072d4" d="m2212 3624.1-3.3-1.3c-77.6-83.7-37-209.6-7.6-274.6a91.5 91.5 0 0 0-3-80.8l-.6-1.2a84.8 84.8 0 0 0-63.1-44.3 558.1 558.1 0 0 1 16.7-65 112.8 112.8 0 0 0 64.2-29.7c-3.4 38.1-.7 85.7 20.3 132.4 8.5 19 19.6 36.6 33 52.7a410.5 410.5 0 0 1-44.8 103c-46.5 75.7-30.2 158.2-11.8 208.8m-113.3-407.3a141 141 0 0 1-39.7-16 261.7 261.7 0 0 1 31.7-55.2 139 139 0 0 0 16.7 6.5 410.8 410.8 0 0 0-8.7 64.7"/><path fill="#b2e4ff" d="M2199.5 3618.8c-59.2-26.6-148-89.5-185.8-233.1-23.8-90.4-8.3-158 18.7-206.4 7.1 7.6 15.9 15 26.6 21.5-21.1 50-30 115-8.3 197.3 30.6 116.3 92.7 183 148.8 220.7"/><path fill="#b2d4f2" d="M2059 3200.8a125.2 125.2 0 0 1-26.6-21.5 242.5 242.5 0 0 1 21.4-32.1c10.2-1.4 19.9-3.2 29.1-5.5l.3.2.2.1h.2v.1l7 3.5a267 267 0 0 0-31.6 55.2"/><path fill="#000072" d="M2131.1 3080.9c-30.6 16.7-170 105.2-117.4 304.8 40.6 154.2 140 215.3 198.3 238.4-18.4-50.6-34.7-133.1 11.8-208.7 44.6-72.6 76.7-183.4 41.6-255.3-21.4-43.7-66.5-70.4-134.3-79.2m122.7 602.4-3.1-.3c-8.8-1.2-215-32.5-281.6-285.6a303.7 303.7 0 0 1 148-361.1c3.8-1.8 8.1-2.5 12.3-2 88.3 9.7 148 45.3 177.4 105.6 49.1 100.6-4.4 235.6-43.8 299.6-57.5 93.6 9.9 207.7 10.6 208.8a23 23 0 0 1-19.8 35"/><path fill="#000072" d="m2183.6 3074.5-7.2 15.4c-2.4 5.4-4.7 11-7 16.5l-6.7 16.7c-2 5.7-4.2 11.4-6 17.1a563 563 0 0 0-23.4 88l-3.1 18.1c-1.6 12.2-3.6 24.4-4.6 36.7-3 24.7-3.3 49.6-5 75.7a280.1 280.1 0 0 1-19.9-75.4c-2-13-2.2-26-2.8-39.2-.1-6.6.4-13.1.5-19.7a419 419 0 0 1 27.7-135.4c2.5-6.1 5-12.3 7.8-18.4 2.8-6.3 5.8-11.9 9.6-18.7l40.1 22.6"/><path fill="#00a4ff" d="M2831.5 3127s-182 338.5-425.3 249.7c-243.4-88.9-152.4-319.6-152.4-319.6 48.5-46.7 93.7-56.3 145.7-44.5 45.3 10.4 95.8 37.3 158.3 70.5 103.4 54.7 210.1 51.1 253.5 46.6 13-1.4 20.2-2.8 20.2-2.8"/><path fill="#0072d4" d="M2487.5 3368.3c-23.7 0-48.3-4.1-73.4-13.3-67.4-24.6-113.3-63-136.3-114a213.7 213.7 0 0 1-17.3-97.6l11.8 10a528 528 0 0 0 49.5 36.7 624 624 0 0 0 26.3 15.8 124.3 124.3 0 0 0 125.3 94.3c20.2 0 42.9-2.3 68.4-7.5 102.5-20.7 185.2-79.3 245.3-138h.3c-47 70.6-159.3 213.6-299.9 213.6m-140.8-223.5a1075.4 1075.4 0 0 1-52.7-39.1l4-2.8a112.4 112.4 0 0 0 30.8-34.2 23 23 0 0 0 25.1-3.4l36-31 4.7 1a217 217 0 0 1-28.8 65 131.4 131.4 0 0 0-19 44.5"/><path fill="#000072" d="M2273.7 3070c-6.4 19.5-28.8 98.4 4 171 23.1 51 69 89.4 136.4 114 174.2 63.6 318.4-117.7 373.3-200.4-54.8 2.6-148.4-2.4-240.4-51.2l-1.2-.7c-138-73.1-198.3-100.7-272.1-32.6m214.2 344.4c-30 0-60-5.4-89.6-16.2-79.7-29-134.4-75.8-162.7-138.7-45.5-101.2-5-206.5-3.2-211 1.2-3 3-5.8 5.5-8 102.7-98.8 192.9-51 329.5 21.4l1.2.7c124.8 66.2 257.2 41.8 258.5 41.6a23 23 0 0 1 24.7 33.5c-2 3.6-48 88.7-125.7 163.9-77.1 74.7-158.1 112.8-238.2 112.8"/><path fill="#000072" d="M2259.5 3078.1c29.1 23.6 59.7 48 90.8 69.2a592.8 592.8 0 0 0 47.8 29.6l12.2 6.5 12.4 5.7a433.5 433.5 0 0 0 80 26.9c18.4 4 37.2 6.5 56 7.3a261.8 261.8 0 0 0 56.9-4.2 185 185 0 0 0 55-19.3 155.8 155.8 0 0 1-50.6 33.3 231 231 0 0 1-59.8 16.4 286.1 286.1 0 0 1-62.4 1.7 358.7 358.7 0 0 1-61.7-10.2c-10.1-2.5-20-5.3-30-8.7l-15.1-5.6-14.6-6.3a443.2 443.2 0 0 1-54.6-30.3 548.9 548.9 0 0 1-49.5-36.6 454.1 454.1 0 0 1-45-42.4l32.2-33"/><path fill="#00a4ff" d="M2205.2 3040.2s-113 162.2-358.4 42.9c-181-88.1-176.4-145.2-161.4-169.1a44 44 0 0 1 11.9-12.8c-41-57.8-9.3-116.2-9.3-116.2 54.6 60.2 167.8 101.3 231.9 120.9a863 863 0 0 0 46.8 13l238.5 121.3"/><path fill="#0072d4" d="M2017 3104c-44.2 0-97.3-11.1-160-41.7-136-66.1-153.7-108.4-155-123.5-.2-1.7-.1-3.2 0-4.7 25.9 26.6 71.2 56.8 150.3 74.7a58.3 58.3 0 0 0 32.5-2.1c12.2 6.3 24.9 11.7 37.3 17.6 9 3.7 18 6.9 27.1 10.3 4.6 1.6 9 3.6 13.7 5l13.9 4c5.3 1.6 10.5 3.1 15.9 4.5a260 260 0 0 0 40.7 55.3c-5.4.3-10.9.5-16.5.5m-37.6-83.2-10.7-2c-4.6-.8-9-2.3-13.6-3.4-9-2.4-18-4.6-27-7.2-9.3-3.4-18.8-6.4-28.1-9.8a57 57 0 0 0 21.9-52c-.6-5.2-1.1-10.6-1.5-16.2a858 858 0 0 0 38.3 10.5l4.7 2.4v10.4c1 21.5 6.6 44.6 16 67.3"/><path fill="#000072" d="M1699.8 2827.2c-1.7 17 .9 38.9 16.3 60.7a23 23 0 0 1-6.2 32.6c-.6.5-9 6.8-8 18.3 1.4 15.1 19 57.4 155 123.5 172.7 84 272.6 20.8 311-15.2l-209.3-106.5c-23-5.6-171.5-44-258.8-113.4m315.7 322.5c-50.3 0-109.8-12.4-178.8-46-118.4-57.5-177.6-110.7-180.8-162.6-1-17.9 5-32.5 12.5-43-33-62.9-2.1-121.4-.7-124a23 23 0 0 1 37.4-4.6c72.7 80.3 264.9 126.5 266.8 127 1.8.3 3.5 1 5.2 1.8l238.5 121.4a23 23 0 0 1 8.5 33.7c-1 1.3-69.2 96.3-208.6 96.3"/><path fill="#000072" d="M2210.3 3062.7a336 336 0 0 1-30.6 3.4c-9.9.8-19.8 1-29.6 1.3-9.8.2-19.7-.1-29.5-.3-9.7-.6-19.5-1-29.3-1.7a554 554 0 0 1-114.5-21.8l-14-4c-4.6-1.4-9-3.4-13.6-5-9-3.4-18.1-6.6-27-10.3-17.5-8.3-35.4-15.5-51.8-25.7-33.9-18-64-42-92.7-66.7 31.2 21.7 63 42.2 97.9 56.4 16.8 8.2 35 13.5 52.4 19.8 9 2.6 18 4.8 27 7.2 4.6 1.1 9 2.6 13.6 3.4l13.7 2.5c36.4 7 73.4 10.4 110.3 9.6 9.2-.2 18.4-.7 27.5-1 9.2-.9 18.3-1.6 27.4-2.6 9-1.2 18-2.4 27-4 8.7-1.5 18-3.5 25.5-5.5l10.3 45"/><path fill="#00a4ff" d="M3094 2467h-.1c-342.8 220-755.2 581-755.2 581l-84.9-160.1c30-28.4 60.3-54.8 90.4-79.4 377.6-309 749.7-341.6 749.7-341.6"/><path fill="#0072d4" d="M2348.8 3008.8a310.5 310.5 0 0 0 1.6-72.7 2178 2178 0 0 1 249-189.2 2039 2039 0 0 1 106.6-65 2046.8 2046.8 0 0 0-144.9 72.6c111.4-76.2 264.4-171.6 425-243.5-267.7 184-552.3 424.8-637.3 497.8m-9-115a139.6 139.6 0 0 0-20.8-34 1636 1636 0 0 1 41.2-34.6 82 82 0 0 0 54.3 17.6 2381.8 2381.8 0 0 0-74.8 51"/><path fill="#000072" d="m2282.5 2892.7 63 119c80.9-69.6 370.6-315.2 642.4-502-150 35.8-434 132.4-705.4 383m56.2 178.3a23 23 0 0 1-20.4-12.3l-84.8-160a23 23 0 0 1 4.5-27.6c407.4-384.1 835.9-425.6 854-427.2a23.1 23.1 0 0 1 14.4 42.4c-337.4 216.6-748.4 575.4-752.5 579a23 23 0 0 1-15.2 5.7"/><path fill="#000072" d="M2276.1 2941.6a2193.5 2193.5 0 0 1 317.4-204.6c36.9-19.7 74.6-37.7 112.5-55.1a2072.7 2072.7 0 0 0-208.8 136.2 2178 2178 0 0 0-98 76.4 1729.7 1729.7 0 0 0-92.4 81.5l-30.7-34.4"/><path fill="#00a4ff" d="M2217.9 3124.9c-112.2 103.6-254.7-63.6-254.7-177.1 0-57.4 33-76.6 65.6-81.5 31.9-4.9 63.5 4 63.5 4l5.5-7.6c78.1-103 243.4-51.9 252.9 77 15 202.6-132.8 185.2-132.8 185.2"/><path fill="#7c94cb" d="M2083.4 3142h-.1.1m-.2-.1-.3-.2.3.2"/><path fill="#0050b6" d="M2348.8 3008.8a310.9 310.9 0 0 0 1.6-72.7l.3 3.6c2 26.7 1.1 49.5-1.9 69v.1"/><path fill="#0072d4" d="M2141 3157.4c-19.6 0-39-5.6-57.4-15.3l-.2-.1h-.1l-.1-.1-.3-.2a201.2 201.2 0 0 1-49.5-38.3 257.5 257.5 0 0 1 5.1 5.2 281 281 0 0 1-14.2-23.3c19.9 8.4 44.7 17.6 66.2 17.6 21.4 0 39.7-9 46.8-36.7a8 8 0 0 1 8.9-5.9c6.5 1 17 2.3 29.4 2.3 54 0 143.3-23.3 96-188.7-2.3-8.2-4-16.3-5.7-24.2 24.5 4.5 48 15.2 67.4 31.2a140.3 140.3 0 0 0 17.4 58.8c2 26.7 1 49.5-1.9 69.1a167 167 0 0 1-20 60c-9 15-19.6 26-30.9 34.1a124 124 0 0 1-71.4 22.3c-5.4 0-8.6-.4-8.6-.4-24.8 23-51 32.6-76.8 32.6"/><path fill="#0072d4" d="M2163.6 2993.7s-93-3.6-124.7-81.7a95.7 95.7 0 0 1 52.6-5.7c4.5 25.4 21 59.6 72 87.4m-71.2-123.5s-19.4-5.4-43.1-5.4c23.7 0 43 5.4 43 5.4m-63.4-4h.5-.5m20.3-1.4"/><path fill="#b2d4f2" d="M1963.3 2951.9v-.1m0-.2v-.1m0-3v-.2.2m0-.4"/><path fill="#b2e4ff" d="m2024.3 3085.3-10.2-4.4c-29.5-38.8-49.1-86.2-50.8-127.5v-5.6c0-57.4 33-76.6 65.5-81.5 1.2 17.5 4.8 32.7 10 45.7-23.5 10-42.7 31.5-42.7 75.3 0 30.9 10.6 65.7 28.2 98"/><path fill="#b2d4f2" d="M2038.5 3108.6a249.1 249.1 0 0 1-24.4-27.7l10.2 4.4a281 281 0 0 0 14.2 23.3"/><path fill="#e8e8f2" d="m2097.8 2862.7.2-.2-.2.2m1.7-2.1v-.1m40.1-34.8h.1"/><path fill="#b2e4ff" d="M2110 2910.3c-3.3 0-6.7-.6-10-1.7-2.5-.8-5.3-1.6-8.5-2.3-3.8-21 .8-36 .8-36l5.5-7.6.2-.2 1.5-2 .3-.4a139 139 0 0 1 39.7-34.5h.2c21-12 44.3-17.7 67.4-17.7a147.3 147.3 0 0 1 47.6 8c5.7 10.3 8.5 21.7 11.2 33.8-8.5-1.5-17.2-2.3-25.9-2.3-40.1 0-80.6 17-109.3 54.8a30 30 0 0 1-20.7 8"/><path fill="#b2d4f2" d="M2333.3 2881a147.4 147.4 0 0 0-67.4-31.3c-2.7-12-5.5-23.5-11.2-33.8 9.8 3.4 19.2 7.8 28.1 13.1 20.6 12.4 38.3 30 50.5 52m-294.4 31c-5.3-13-9-28.2-10.1-45.7l.5-.1c6.7-1 13.4-1.4 19.8-1.4 23.8 0 43.2 5.4 43.2 5.4s-4.6 15-.8 36.1a80.2 80.2 0 0 0-29.8-.5 95.7 95.7 0 0 0-22.8 6.2"/><path fill="#000072" d="M2049.3 2887.8c-15.8 0-32.9 2.8-44.7 11.9-12.4 9.4-18.3 25.1-18.3 48.1 0 66.5 55.5 151.3 116.4 178 36.1 15.8 69.6 9.8 99.5-17.9 5-4.6 11.6-6.7 18.4-6 .2 0 42.6 4.2 73.1-25.4 27.2-26.4 38.7-71.8 34-135a117.3 117.3 0 0 0-85.6-105.5c-37.5-11.1-90.3-6.3-126 40.6l-5 6.9a23 23 0 0 1-25 9c-7.2-2-21.4-4.7-36.8-4.7zm91.7 292.6c-18.7 0-37.7-4-56.8-12.4-78-34.2-144-135-144-220.2 0-37.9 12.3-66.5 36.6-85 34.3-26 81.3-22.5 106-18.2a159.1 159.1 0 0 1 172.4-52.8 164.3 164.3 0 0 1 118.5 146.2c5.7 78-10.6 135.9-48.5 172.1-35.3 33.8-78.8 38.1-99 38.1h-.1a132.4 132.4 0 0 1-85.1 32.2"/><path fill="#000072" d="m2114.8 2875.3-.8 7-.7 8c-.4 5.3-.4 10.7-.4 16.1.3 10.8 2 21.3 5.3 31.7a86 86 0 0 0 16.7 29.6c3.7 5 8.5 8.8 13 13.4 4.9 4.4 10.3 8 15.6 12.5-6.6-.6-13.7-1-20.5-2.7-6.6-2.1-13.8-3.7-20-7.4a91 91 0 0 1-34.5-29 107.4 107.4 0 0 1-18.8-42.4c-.6-3.8-1.4-7.6-1.8-11.4-.3-3.9-.7-7.7-.6-11.6a108.7 108.7 0 0 1 2.5-24l45 10.2m96 271.5a104 104 0 0 1-18.9-11.5 114 114 0 0 1-15.5-14.7 89.9 89.9 0 0 1-12.3-17.4 61 61 0 0 1-6.6-20.1 225.8 225.8 0 0 0 52 16.8l8.2 1.6c2.5.5 5.6 1.2 7.2 1.4l-14.1 43.9"/></svg>